<svg enable-background="new 0 0 91 22" viewBox="0 0 91 22" xmlns="http://www.w3.org/2000/svg"><g fill="#fff"><path d="m0 16.5v-16h3v5.9c.8-1.1 2.2-1.8 3.6-1.8 3 0 5.1 2.3 5.1 6.1s-2.2 6.1-5.1 6.1c-1.4 0-2.7-.7-3.6-1.8v1.5zm5.7-2.5c1.8 0 2.9-1.4 2.9-3.4s-1.2-3.3-2.9-3.3c-1 0-2 .5-2.6 1.3v4.1c.6.8 1.5 1.3 2.6 1.3z"/><path d="m13.8 1.8c0-1 .8-1.8 1.8-1.8.5 0 .9.2 1.3.5.3.3.5.8.5 1.3 0 1-.8 1.8-1.8 1.8s-1.8-.8-1.8-1.8zm.3 14.7v-11.6h3.1v11.6z"/><path d="m19.9 19.4 1.4-2.2c.9 1 2.3 1.5 3.6 1.4 1.5 0 3.2-.6 3.2-2.9v-1.2c-.8 1.1-2.2 1.8-3.6 1.8-2.9 0-5.1-2-5.1-5.9s2.2-5.9 5.1-5.9c1.4 0 2.7.7 3.6 1.8v-1.4h3.1v10.8c0 4.4-3.4 5.5-6.3 5.5-1.8.1-3.6-.6-5-1.8zm8.2-7v-3.8c-.6-.8-1.6-1.3-2.6-1.3-.8 0-1.6.3-2.2.9s-.8 1.5-.7 2.3c-.1.8.2 1.7.7 2.3.6.6 1.4 1 2.2.9 1 0 2-.5 2.6-1.3z"/><path d="m34.6 16.5v-16h1.2v6.3c.5-.7 1.1-1.2 1.8-1.6s1.5-.6 2.3-.6c1.4 0 2.8.6 3.8 1.7 1 1.3 1.5 2.8 1.4 4.4.1 1.6-.4 3.2-1.4 4.4-.9 1.1-2.3 1.7-3.8 1.6-.8 0-1.6-.2-2.3-.6s-1.3-.9-1.7-1.6v1.8zm1.2-2.9c.4.6.9 1.1 1.6 1.5s1.4.6 2.2.6c1.2.1 2.3-.5 3-1.4.8-1 1.1-2.3 1.1-3.6.1-1.3-.3-2.5-1.1-3.6-.7-.9-1.8-1.5-3-1.4-.8 0-1.6.2-2.2.6s-1.2.9-1.6 1.5z"/><path d="m48.3 13v-8.1h1.2v7.9c-.1.8.2 1.6.7 2.2.6.5 1.3.7 2.1.6.7 0 1.5-.2 2.1-.6.6-.3 1.2-.8 1.6-1.4v-8.7h1.2v11.6h-1.2v-1.7c-.5.6-1.2 1.1-1.9 1.4-.7.4-1.5.6-2.3.6-1 .1-2-.3-2.7-.9-.5-.8-.9-1.8-.8-2.9z"/><path d="m61.3 16.5v-11.6h1.2v1.7c.4-.6.9-1 1.5-1.4.7-.4 1.4-.6 2.2-.6.7 0 1.4.2 2 .6.5.4.8 1 1 1.6.4-.6.9-1.2 1.6-1.5.7-.4 1.5-.7 2.3-.7 2.1 0 3.2 1.2 3.2 3.5v8.4h-1.3v-8.1c0-1.8-.8-2.6-2.3-2.6-.7 0-1.3.2-1.9.6-.6.3-1.1.8-1.4 1.4v8.8h-1.2v-8.2c0-1.8-.8-2.6-2.3-2.6-.7 0-1.3.2-1.8.6-.6.4-1.1.8-1.5 1.4v8.8h-1.3z"/><path d="m80.2 20.9v-16h1.2v1.8c.4-.6 1-1.2 1.7-1.5.7-.4 1.5-.6 2.3-.6 1.4 0 2.8.6 3.8 1.6 1 1.2 1.5 2.8 1.4 4.4.1 1.6-.4 3.2-1.4 4.4-1.5 1.7-4 2.1-6 1.1-.7-.4-1.3-.9-1.8-1.6v6.3h-1.2zm1.2-7.4c.9 1.3 2.3 2.1 3.8 2.1 1.2.1 2.3-.5 3-1.4.8-1 1.1-2.3 1.1-3.6.1-1.3-.3-2.5-1.1-3.6-.7-.9-1.8-1.4-3-1.4-.8 0-1.6.2-2.2.6-.7.3-1.2.8-1.6 1.5z"/></g></svg>